<svg xmlns="http://www.w3.org/2000/svg" xmlns:xlink="http://www.w3.org/1999/xlink" xmlns:lucid="lucid" width="1760" height="1360"><g transform="translate(0 0)" lucid:page-tab-id="0_0"><path d="M920 586a6 6 0 0 1 6-6h228a6 6 0 0 1 6 6v188a6 6 0 0 1-6 6H926a6 6 0 0 1-6-6z" stroke="#3a414a" fill="#fff"/><path d="M920 586a6 6 0 0 1 6-6h208a6 6 0 0 1 6 6v28a6 6 0 0 1-6 6H926a6 6 0 0 1-6-6z" stroke="#000" stroke-opacity="0" fill="#fff" fill-opacity="0"/><use xlink:href="#a" transform="matrix(1,0,0,1,925,585.0000000000002) translate(0 17.77777777777778)"/><use xlink:href="#b" transform="matrix(1,0,0,1,925,585.0000000000002) translate(36.54320987654321 17.77777777777778)"/><use xlink:href="#c" transform="matrix(1,0,0,1,925,585.0000000000002) translate(105.4320987654321 17.77777777777778)"/><use xlink:href="#d" transform="matrix(1,0,0,1,925,585.0000000000002) translate(131.2962962962963 17.77777777777778)"/><path d="M280 586a6 6 0 0 1 6-6h428a6 6 0 0 1 6 6v188a6 6 0 0 1-6 6H286a6 6 0 0 1-6-6z" stroke="#3a414a" fill="#fff"/><path d="M280 586a6 6 0 0 1 6-6h408a6 6 0 0 1 6 6v28a6 6 0 0 1-6 6H286a6 6 0 0 1-6-6z" stroke="#000" stroke-opacity="0" fill="#fff" fill-opacity="0"/><use xlink:href="#e" transform="matrix(1,0,0,1,285,585.0000000000001) translate(0 17.77777777777778)"/><use xlink:href="#f" transform="matrix(1,0,0,1,285,585.0000000000001) translate(141.6049382716049 17.77777777777778)"/><use xlink:href="#g" transform="matrix(1,0,0,1,285,585.0000000000001) translate(204.4444444444444 17.77777777777778)"/><use xlink:href="#h" transform="matrix(1,0,0,1,285,585.0000000000001) translate(284.56790123456784 17.77777777777778)"/><path d="M280 106a6 6 0 0 1 6-6h428a6 6 0 0 1 6 6v208a6 6 0 0 1-6 6H286a6 6 0 0 1-6-6z" stroke="#3a414a" fill="#fff"/><path d="M960 620h120v120H960V620z" stroke="#000" stroke-opacity="0" fill="url(#i)"/><path d="M1001.26 696.92h35.66v-33.84h-35.66v33.84zm39.38-33.84h5.6v3.8h-5.6v3.7h5.6v3.8h-5.6v3.72h5.6v3.8h-5.6v5.6h5.6v3.73h-5.6v3.8h5.6v3.7h-5.85c-.5 1.17-1.58 1.9-2.9 1.9h-.58v5.62h-3.8v-5.6h-3.7v5.6h-3.8v-5.6h-3.72v5.6h-3.8v-5.6h-3.7v5.6h-3.8v-5.6h-5.63v5.6h-3.7v-5.6h-.67c-1.32 0-2.4-.75-2.9-1.9h-3.95v-3.72h3.7v-3.8h-3.7v-3.72h3.7v-5.6h-3.7v-3.8h3.7v-3.7h-3.7v-3.8h3.7v-3.73h-3.7v-3.8h3.7v-.57c0-1.74 1.4-3.14 3.15-3.14h.66v-5.6h3.7v5.6h5.63v-5.6h3.8v5.6h3.7v-5.6h3.8v5.6h3.7v-5.6h3.8v5.6h3.73v-5.6h3.8v5.6h.57c1.74 0 3.14 1.4 3.14 3.14v.58zm-20.64 54.5h-37.57V680h7.52v-3.72h-7.76c-1.9 0-3.48 1.5-3.48 3.4v38.13c0 1.9 1.57 3.48 3.47 3.48h38.13c1.9 0 3.38-1.57 3.38-3.47v-7.75h-3.7v7.52zm41.28-75.4v38.15c0 1.9-1.57 3.38-3.47 3.38h-7.75V680h7.52v-37.57H1020v7.52h-3.72v-7.76c0-1.9 1.5-3.48 3.4-3.48h38.13c1.9 0 3.48 1.57 3.48 3.47z" stroke="#000" stroke-opacity="0" fill="#fff"/><use xlink:href="#j" transform="matrix(1,0,0,1,930,749.0000000000001) translate(37.05 14.4)"/><use xlink:href="#k" transform="matrix(1,0,0,1,930,749.0000000000001) translate(108 14.4)"/><g stroke="#000" stroke-opacity="0"><path d="M412.64 459.96c0 4.28-3.47 7.74-7.74 7.74s-7.74-3.46-7.74-7.74c0-4.27 3.47-7.74 7.74-7.74s7.74 3.47 7.74 7.74z" fill="url(#l)" transform="matrix(6.123233995736766e-17,-1,1,6.123233995736766e-17,-80,840)"/><path d="M388.04 460.04c0 4.27-3.47 7.74-7.74 7.74s-7.74-3.47-7.74-7.74c0-4.28 3.47-7.74 7.74-7.74s7.74 3.46 7.74 7.74z" fill="url(#m)" transform="matrix(6.123233995736766e-17,-1,1,6.123233995736766e-17,-80,840)"/><path d="M363.32 460.04c0 4.27-3.47 7.74-7.74 7.74s-7.74-3.47-7.74-7.74c0-4.28 3.47-7.74 7.74-7.74s7.74 3.46 7.74 7.74z" fill="url(#n)" transform="matrix(6.123233995736766e-17,-1,1,6.123233995736766e-17,-80,840)"/><path d="M410.96 478.77l4.43 4.43c.77.8.82 2.05.04 2.84l-32.74 32.74c-1.56 1.54-4.13 1.54-5.7 0l-4.42-4.43 35.56-35.58c.78-.8 2.04-.8 2.82 0z" stroke-width=".71" fill="#50e6ff"/><path d="M344.7 483.86l4.42-4.44c.77-.8 2.02-.8 2.84 0l35.12 34.98-4.43 4.4c-1.55 1.57-4.1 1.6-5.68.05L344.7 486.7c-.82-.78-.82-2.06 0-2.84z" stroke-width=".71" fill="#1490df"/><path d="M372.5 405.6l4.44-4.43c1.56-1.55 4.13-1.55 5.7 0l32.72 32.74c.78.8.74 2.06-.04 2.85l-4.43 4.43c-.8.8-2.05.8-2.83 0L372.5 405.6z" stroke-width=".71" fill="#50e6ff"/><path d="M382.62 401.24l4.44 4.4-35.14 34.94c-.82.8-2.06.8-2.84 0l-4.48-4.48c-.8-.8-.8-2.06 0-2.84l32.3-32.1c1.6-1.57 4.13-1.53 5.68.03z" stroke-width=".71" fill="#1490df"/><path d="M344.65 483.86l-.06-47.72 1.97-.3 3.82 4.55 29.36-28.4 29.3 28.97 5.24-4.64 1.06.48v46.38l-.85.5-4.87-4.85-29.87 29.76-29.1-29-5.65 5.13z" fill-opacity="0"/></g><use xlink:href="#o" transform="matrix(6.123233995736766e-17,-1,1,6.123233995736766e-17,425,550) translate(23.625 14.4)"/><use xlink:href="#p" transform="matrix(6.123233995736766e-17,-1,1,6.123233995736766e-17,425,550) translate(94.47500000000001 14.4)"/><path d="M560 192.7h120v67.24c0 2.28-1.8 4.06-4.08 4.06H564.08c-2.28 0-4.08-1.78-4.08-4.06V192.7z" stroke="#000" stroke-opacity="0" fill="url(#q)"/><path d="M564.08 167h111.84c2.28 0 4.08 1.8 4.08 4.04v21.67H560V171c0-2.2 1.8-3.98 4.08-3.98z" stroke="#000" stroke-opacity="0" fill="#767676"/><path d="M656.72 223.94c0 5.4-4.36 9.8-9.72 9.8-5.37 0-9.72-4.4-9.72-9.8s4.36-9.8 9.72-9.8c5.37 0 9.72 4.4 9.72 9.8zM630.08 223.94c0 5.4-4.36 9.8-9.72 9.8-5.37 0-9.72-4.4-9.72-9.8s4.36-9.8 9.72-9.8c5.37 0 9.72 4.4 9.72 9.8zM602.72 223.94c0 5.4-4.36 9.8-9.72 9.8-5.37 0-9.72-4.4-9.72-9.8s4.36-9.8 9.72-9.8c5.37 0 9.72 4.4 9.72 9.8zM578.22 174.66h83.68c1.32 0 2.02.67 2.02 2v6.4c0 1.32-.7 1.98-2.02 1.98h-83.68c-1.32 0-2.02-.66-2.02-2v-6.38c0-1.33.7-2 2.02-2z" stroke="#000" stroke-opacity="0" fill="#f2f2f2"/><use xlink:href="#r" transform="matrix(1,0,0,1,530,273) translate(54.55 14.4)"/><use xlink:href="#s" transform="matrix(1,0,0,1,530,273) translate(108.45 14.4)"/><path d="M323.96 160h112.08c2.64 0 3.96 1.36 3.96 4v72.13c0 2.65-1.32 4-3.96 4H323.96c-2.64 0-3.96-1.35-3.96-4V164c0-2.64 1.32-4 3.96-4z" stroke="#000" stroke-opacity="0" fill="url(#t)"/><path d="M400.04 188.42v23.32L380 223.5v-23.4l20.04-11.68z" stroke="#000" stroke-opacity="0" fill="#50e6ff"/><path d="M399.92 188.34l-19.98 11.73-19.98-11.73 19.98-11.7 19.98 11.7z" stroke="#000" stroke-opacity="0" fill="#c3f1ff"/><path d="M380 200.17v23.32l-20.04-11.76v-23.32L380 200.17z" stroke="#000" stroke-opacity="0" fill="#9cebff"/><path d="M359.96 211.66l20.04-11.6v23.32l-20.04-11.72z" stroke="#000" stroke-opacity="0" fill="#c3f1ff"/><path d="M400.04 211.66L380 200.06v23.32l20.04-11.72z" stroke="#000" stroke-opacity="0" fill="#9cebff"/><path d="M404.06 264.33c-11.88-1.85-12.3-10.4-12.3-24.2h-23.58c0 13.8-.36 22.35-12.24 24.2-3.42.38-5.94 3.25-5.94 6.67h60c0-3.43-2.52-6.3-5.94-6.67z" stroke="#000" stroke-opacity="0" fill="url(#u)"/><use xlink:href="#v" transform="matrix(1,0,0,1,290,280) translate(28.299999999999997 14.4)"/><use xlink:href="#w" transform="matrix(1,0,0,1,290,280) translate(83.8 14.4)"/><path d="M323.96 620h112.08c2.64 0 3.96 1.36 3.96 4v72.13c0 2.65-1.32 4-3.96 4H323.96c-2.64 0-3.96-1.35-3.96-4V624c0-2.64 1.32-4 3.96-4z" stroke="#000" stroke-opacity="0" fill="url(#x)"/><path d="M400.04 648.42v23.32L380 683.5v-23.4l20.04-11.68z" stroke="#000" stroke-opacity="0" fill="#50e6ff"/><path d="M399.92 648.34l-19.98 11.73-19.98-11.73 19.98-11.7 19.98 11.7z" stroke="#000" stroke-opacity="0" fill="#c3f1ff"/><path d="M380 660.17v23.32l-20.04-11.76v-23.32L380 660.17z" stroke="#000" stroke-opacity="0" fill="#9cebff"/><path d="M359.96 671.66l20.04-11.6v23.32l-20.04-11.72z" stroke="#000" stroke-opacity="0" fill="#c3f1ff"/><path d="M400.04 671.66L380 660.06v23.32l20.04-11.72z" stroke="#000" stroke-opacity="0" fill="#9cebff"/><path d="M404.06 724.34c-11.88-1.86-12.3-10.4-12.3-24.2h-23.58c0 13.8-.36 22.34-12.24 24.2-3.42.37-5.94 3.24-5.94 6.66h60c0-3.42-2.52-6.3-5.94-6.66z" stroke="#000" stroke-opacity="0" fill="url(#y)"/><use xlink:href="#v" transform="matrix(1,0,0,1,290,740) translate(28.299999999999997 14.4)"/><use xlink:href="#w" transform="matrix(1,0,0,1,290,740) translate(83.8 14.4)"/><path d="M560 652.7h120v67.24c0 2.28-1.8 4.06-4.08 4.06H564.08c-2.28 0-4.08-1.78-4.08-4.06V652.7z" stroke="#000" stroke-opacity="0" fill="url(#z)"/><path d="M564.08 627h111.84c2.28 0 4.08 1.8 4.08 4.04v21.67H560V631c0-2.2 1.8-3.98 4.08-3.98z" stroke="#000" stroke-opacity="0" fill="#767676"/><path d="M656.72 683.94c0 5.4-4.36 9.8-9.72 9.8-5.37 0-9.72-4.4-9.72-9.8s4.36-9.8 9.72-9.8c5.37 0 9.72 4.4 9.72 9.8zM630.08 683.94c0 5.4-4.36 9.8-9.72 9.8-5.37 0-9.72-4.4-9.72-9.8s4.36-9.8 9.72-9.8c5.37 0 9.72 4.4 9.72 9.8zM602.72 683.94c0 5.4-4.36 9.8-9.72 9.8-5.37 0-9.72-4.4-9.72-9.8s4.36-9.8 9.72-9.8c5.37 0 9.72 4.4 9.72 9.8zM578.22 634.66h83.68c1.32 0 2.02.67 2.02 2v6.4c0 1.32-.7 1.98-2.02 1.98h-83.68c-1.32 0-2.02-.66-2.02-2v-6.38c0-1.33.7-2 2.02-2z" stroke="#000" stroke-opacity="0" fill="#f2f2f2"/><use xlink:href="#r" transform="matrix(1,0,0,1,530,733) translate(54.55 14.4)"/><use xlink:href="#s" transform="matrix(1,0,0,1,530,733) translate(108.45 14.4)"/><path d="M543.62 675.5h-87.24" stroke="#3a414a" fill="none"/><path d="M558.38 675.5l-14.26 4.63v-9.26zM441.62 675.5l14.26-4.63v9.26z" stroke="#3a414a" fill="#3a414a"/><path d="M543.62 215.5h-87.24" stroke="#3a414a" fill="none"/><path d="M558.38 215.5l-14.26 4.63v-9.26zM441.62 215.5l14.26-4.63v9.26z" stroke="#3a414a" fill="#3a414a"/><path d="M280 106a6 6 0 0 1 6-6h308a6 6 0 0 1 6 6v28a6 6 0 0 1-6 6H286a6 6 0 0 1-6-6z" stroke="#000" stroke-opacity="0" fill="#fff" fill-opacity="0"/><use xlink:href="#A" transform="matrix(1,0,0,1,285,105.00000000000001) translate(0 17.77777777777778)"/><use xlink:href="#B" transform="matrix(1,0,0,1,285,105.00000000000001) translate(58.7037037037037 17.77777777777778)"/><use xlink:href="#C" transform="matrix(1,0,0,1,285,105.00000000000001) translate(95.67901234567901 17.77777777777778)"/><use xlink:href="#D" transform="matrix(1,0,0,1,285,105.00000000000001) translate(121.54320987654322 17.77777777777778)"/><path d="M380 383.77v-96.4" stroke="#3a414a" fill="none"/><path d="M380 398.54l-4.63-14.27h9.26zM380 272.62l4.63 14.26h-9.26z" stroke="#3a414a" fill="#3a414a"/><path d="M380 536.25v67.37" stroke="#3a414a" fill="none"/><path d="M380 521.48l4.63 14.27h-9.26zM380 618.38l-4.63-14.26h9.26z" stroke="#3a414a" fill="#3a414a"/><path d="M918.5 680h-9.98m-9.97 0H878.6m-9.96 0H848.7m-9.98 0h-19.94m-9.97 0h-19.94m-9.97 0h-19.95m-9.98 0H739" stroke="#3a414a" stroke-width="2" stroke-linejoin="round" fill="none"/><path d="M919.5 681h-1.03v-2h1.03z" stroke="#3a414a" stroke-width=".05" fill="#3a414a"/><path d="M723.74 680l14.26-4.63v9.26z" stroke="#3a414a" stroke-width="2" fill="#3a414a"/><path d="M918.5 679.98h-.32l-1.3-.1-1.27-.12-1.26-.2-1.27-.23-1.27-.3-1.27-.36-1.3-.4-.56-.23m-8.83-4.75l-.3-.22-1.58-1.2-1.64-1.36-1.73-1.55-1.83-1.78-1.93-2.07-2.06-2.4-2.22-2.8-.7-.98m-5.6-8.37l-1.62-2.7-3.23-5.88-3.63-7.35-.84-1.88m-4-9.23l-4.27-10.8-2.8-8.04m-3.27-9.5l-5.8-19.28m-2.75-9.68l-4.95-19.5m-2.47-9.75l-3.5-13.76-1.3-5.8m-2.24-9.8L829.13 488m-2.23-9.8l-4.44-19.62m-2.23-9.8l-4.45-19.63m-2.23-9.8l-4.45-19.64m-2.23-9.8l-4.46-19.62m-2.2-9.8l-4.47-19.64m-2.23-9.8l-2.42-10.7-2.64-8.77m-2.9-9.64l-2.2-7.4-4.07-11.7m-3.46-9.45l-3.38-8.6-4.2-9.43-.24-.5m-4.56-8.97l-2.06-3.76-2.9-4.8-2.62-3.94-2.4-3.3-.87-1.12m-6.7-7.48l-.46-.45-1.72-1.56-1.64-1.35-1.57-1.2-1.5-1.04-1-.63" stroke="#3a414a" stroke-width="2" stroke-linejoin="round" fill="none"/><path d="M919.5 679v2l-1.05-.02.04-2z" stroke="#3a414a" stroke-width=".05" fill="#3a414a"/><path d="M723.6 210.93l15-.33-2.67 8.88z" stroke="#3a414a" stroke-width="2" fill="#3a414a"/><defs><path fill="#3a414a" d="M199 0l-22-63H83L61 0H9l90-248h61L250 0h-51zm-33-102l-36-108c-10 38-24 72-36 108h72" id="E"/><path fill="#3a414a" d="M24-248c93 1 206-16 204 79-1 75-69 88-152 82V0H24v-248zm52 121c47 0 100 7 100-41 0-47-54-39-100-39v80" id="F"/><g id="a"><use transform="matrix(0.06172839506172839,0,0,0.06172839506172839,0,0)" xlink:href="#E"/><use transform="matrix(0.06172839506172839,0,0,0.06172839506172839,15.987654320987653,0)" xlink:href="#F"/></g><path fill="#3a414a" d="M169-182c-1-43-94-46-97-3 18 66 151 10 154 114 3 95-165 93-204 36-6-8-10-19-12-30l50-8c3 46 112 56 116 5-17-69-150-10-154-114-4-87 153-88 188-35 5 8 8 18 10 28" id="G"/><path fill="#3a414a" d="M110-194c64 0 96 36 96 99 0 64-35 99-97 99-61 0-95-36-95-99 0-62 34-99 96-99zm-1 164c35 0 45-28 45-65 0-40-10-65-43-65-34 0-45 26-45 65 0 36 10 65 43 65" id="H"/><path fill="#3a414a" d="M85 4C-2 5 27-109 22-190h50c7 57-23 150 33 157 60-5 35-97 40-157h50l1 190h-47c-2-12 1-28-3-38-12 25-28 42-61 42" id="I"/><path fill="#3a414a" d="M115-3C79 11 28 4 28-45v-112H4v-33h27l15-45h31v45h36v33H77v99c-1 23 16 31 38 25v30" id="J"/><path fill="#3a414a" d="M114-157C55-157 80-60 75 0H25v-261h50l-1 109c12-26 28-41 61-42 86-1 58 113 63 194h-50c-7-57 23-157-34-157" id="K"/><g id="b"><use transform="matrix(0.06172839506172839,0,0,0.06172839506172839,0,0)" xlink:href="#G"/><use transform="matrix(0.06172839506172839,0,0,0.06172839506172839,14.814814814814813,0)" xlink:href="#H"/><use transform="matrix(0.06172839506172839,0,0,0.06172839506172839,28.33333333333333,0)" xlink:href="#I"/><use transform="matrix(0.06172839506172839,0,0,0.06172839506172839,41.85185185185185,0)" xlink:href="#J"/><use transform="matrix(0.06172839506172839,0,0,0.06172839506172839,49.197530864197525,0)" xlink:href="#K"/></g><path fill="#3a414a" d="M23 0v-37h61v-169l-59 37v-38l62-41h46v211h57V0H23" id="L"/><path fill="#3a414a" d="M35-132v-50h50v50H35zM35 0v-49h50V0H35" id="M"/><g id="c"><use transform="matrix(0.06172839506172839,0,0,0.06172839506172839,0,0)" xlink:href="#L"/><use transform="matrix(0.06172839506172839,0,0,0.06172839506172839,12.345679012345679,0)" xlink:href="#M"/></g><path fill="#3a414a" d="M212-179c-10-28-35-45-73-45-59 0-87 40-87 99 0 60 29 101 89 101 43 0 62-24 78-52l27 14C228-24 195 4 139 4 59 4 22-46 18-125c-6-104 99-153 187-111 19 9 31 26 39 46" id="N"/><path fill="#3a414a" d="M24 0v-261h32V0H24" id="O"/><path fill="#3a414a" d="M24-231v-30h32v30H24zM24 0v-190h32V0H24" id="P"/><path fill="#3a414a" d="M100-194c63 0 86 42 84 106H49c0 40 14 67 53 68 26 1 43-12 49-29l28 8c-11 28-37 45-77 45C44 4 14-33 15-96c1-61 26-98 85-98zm52 81c6-60-76-77-97-28-3 7-6 17-6 28h103" id="Q"/><path fill="#3a414a" d="M117-194c89-4 53 116 60 194h-32v-121c0-31-8-49-39-48C34-167 62-67 57 0H25l-1-190h30c1 10-1 24 2 32 11-22 29-35 61-36" id="R"/><path fill="#3a414a" d="M59-47c-2 24 18 29 38 22v24C64 9 27 4 27-40v-127H5v-23h24l9-43h21v43h35v23H59v120" id="S"/><g id="d"><use transform="matrix(0.06172839506172839,0,0,0.06172839506172839,0,0)" xlink:href="#N"/><use transform="matrix(0.06172839506172839,0,0,0.06172839506172839,15.987654320987653,0)" xlink:href="#O"/><use transform="matrix(0.06172839506172839,0,0,0.06172839506172839,20.864197530864196,0)" xlink:href="#P"/><use transform="matrix(0.06172839506172839,0,0,0.06172839506172839,25.74074074074074,0)" xlink:href="#Q"/><use transform="matrix(0.06172839506172839,0,0,0.06172839506172839,38.08641975308642,0)" xlink:href="#R"/><use transform="matrix(0.06172839506172839,0,0,0.06172839506172839,50.432098765432094,0)" xlink:href="#S"/></g><path fill="#3a414a" d="M67-125c0 53 21 87 73 88 37 1 54-22 65-47l45 17C233-25 199 4 140 4 58 4 20-42 15-125 8-235 124-281 211-232c18 10 29 29 36 50l-46 12c-8-25-30-41-62-41-52 0-71 34-72 86" id="T"/><path fill="#3a414a" d="M185-48c-13 30-37 53-82 52C43 2 14-33 14-96s30-98 90-98c62 0 83 45 84 108H66c0 31 8 55 39 56 18 0 30-7 34-22zm-45-69c5-46-57-63-70-21-2 6-4 13-4 21h74" id="U"/><path fill="#3a414a" d="M135-194c87-1 58 113 63 194h-50c-7-57 23-157-34-157-59 0-34 97-39 157H25l-1-190h47c2 12-1 28 3 38 12-26 28-41 61-42" id="V"/><path fill="#3a414a" d="M135-150c-39-12-60 13-60 57V0H25l-1-190h47c2 13-1 29 3 40 6-28 27-53 61-41v41" id="W"/><path fill="#3a414a" d="M133-34C117-15 103 5 69 4 32 3 11-16 11-54c-1-60 55-63 116-61 1-26-3-47-28-47-18 1-26 9-28 27l-52-2c7-38 36-58 82-57s74 22 75 68l1 82c-1 14 12 18 25 15v27c-30 8-71 5-69-32zm-48 3c29 0 43-24 42-57-32 0-66-3-65 30 0 17 8 27 23 27" id="X"/><path fill="#3a414a" d="M25 0v-261h50V0H25" id="Y"/><path fill="#3a414a" d="M24 0v-248h52V0H24" id="Z"/><path fill="#3a414a" d="M88-194c31-1 46 15 58 34l-1-101h50l1 261h-48c-2-10 0-23-3-31C134-8 116 4 84 4 32 4 16-41 15-95c0-56 19-97 73-99zm17 164c33 0 40-30 41-66 1-37-9-64-41-64s-38 30-39 65c0 43 13 65 39 65" id="aa"/><path fill="#3a414a" d="M25-224v-37h50v37H25zM25 0v-190h50V0H25" id="ab"/><g id="e"><use transform="matrix(0.06172839506172839,0,0,0.06172839506172839,0,0)" xlink:href="#T"/><use transform="matrix(0.06172839506172839,0,0,0.06172839506172839,15.987654320987653,0)" xlink:href="#U"/><use transform="matrix(0.06172839506172839,0,0,0.06172839506172839,28.333333333333332,0)" xlink:href="#V"/><use transform="matrix(0.06172839506172839,0,0,0.06172839506172839,41.85185185185185,0)" xlink:href="#J"/><use transform="matrix(0.06172839506172839,0,0,0.06172839506172839,49.197530864197525,0)" xlink:href="#W"/><use transform="matrix(0.06172839506172839,0,0,0.06172839506172839,57.8395061728395,0)" xlink:href="#X"/><use transform="matrix(0.06172839506172839,0,0,0.06172839506172839,70.18518518518518,0)" xlink:href="#Y"/><use transform="matrix(0.06172839506172839,0,0,0.06172839506172839,76.35802469135801,0)" xlink:href="#Z"/><use transform="matrix(0.06172839506172839,0,0,0.06172839506172839,82.53086419753085,0)" xlink:href="#V"/><use transform="matrix(0.06172839506172839,0,0,0.06172839506172839,96.04938271604937,0)" xlink:href="#aa"/><use transform="matrix(0.06172839506172839,0,0,0.06172839506172839,109.56790123456788,0)" xlink:href="#ab"/><use transform="matrix(0.06172839506172839,0,0,0.06172839506172839,115.74074074074072,0)" xlink:href="#X"/><use transform="matrix(0.06172839506172839,0,0,0.06172839506172839,128.0864197530864,0)" xlink:href="#M"/></g><path fill="#3a414a" d="M190 0L58-211 59 0H30v-248h39L202-35l-2-213h31V0h-41" id="ac"/><path fill="#3a414a" d="M177-190C167-65 218 103 67 71c-23-6-38-20-44-43l32-5c15 47 100 32 89-28v-30C133-14 115 1 83 1 29 1 15-40 15-95c0-56 16-97 71-98 29-1 48 16 59 35 1-10 0-23 2-32h30zM94-22c36 0 50-32 50-73 0-42-14-75-50-75-39 0-46 34-46 75s6 73 46 73" id="ad"/><path fill="#3a414a" d="M141 0L90-78 38 0H4l68-98-65-92h35l48 74 47-74h35l-64 92 68 98h-35" id="ae"/><g id="f"><use transform="matrix(0.06172839506172839,0,0,0.06172839506172839,0,0)" xlink:href="#ac"/><use transform="matrix(0.06172839506172839,0,0,0.06172839506172839,15.987654320987653,0)" xlink:href="#ad"/><use transform="matrix(0.06172839506172839,0,0,0.06172839506172839,28.333333333333332,0)" xlink:href="#P"/><use transform="matrix(0.06172839506172839,0,0,0.06172839506172839,33.20987654320987,0)" xlink:href="#R"/><use transform="matrix(0.06172839506172839,0,0,0.06172839506172839,45.55555555555555,0)" xlink:href="#ae"/></g><path fill="#3a414a" d="M114-163C36-179 61-72 57 0H25l-1-190h30c1 12-1 29 2 39 6-27 23-49 58-41v29" id="af"/><path fill="#3a414a" d="M108 0H70L1-190h34L89-25l56-165h34" id="ag"/><path fill="#3a414a" d="M135-143c-3-34-86-38-87 0 15 53 115 12 119 90S17 21 10-45l28-5c4 36 97 45 98 0-10-56-113-15-118-90-4-57 82-63 122-42 12 7 21 19 24 35" id="ah"/><g id="g"><use transform="matrix(0.06172839506172839,0,0,0.06172839506172839,0,0)" xlink:href="#af"/><use transform="matrix(0.06172839506172839,0,0,0.06172839506172839,7.345679012345679,0)" xlink:href="#Q"/><use transform="matrix(0.06172839506172839,0,0,0.06172839506172839,19.691358024691358,0)" xlink:href="#ag"/><use transform="matrix(0.06172839506172839,0,0,0.06172839506172839,30.80246913580247,0)" xlink:href="#Q"/><use transform="matrix(0.06172839506172839,0,0,0.06172839506172839,43.148148148148145,0)" xlink:href="#af"/><use transform="matrix(0.06172839506172839,0,0,0.06172839506172839,50.49382716049382,0)" xlink:href="#ah"/><use transform="matrix(0.06172839506172839,0,0,0.06172839506172839,61.60493827160494,0)" xlink:href="#Q"/></g><path fill="#3a414a" d="M115-194c55 1 70 41 70 98S169 2 115 4C84 4 66-9 55-30l1 105H24l-1-265h31l2 30c10-21 28-34 59-34zm-8 174c40 0 45-34 45-75s-6-73-45-74c-42 0-51 32-51 76 0 43 10 73 51 73" id="ai"/><path fill="#3a414a" d="M100-194c62-1 85 37 85 99 1 63-27 99-86 99S16-35 15-95c0-66 28-99 85-99zM99-20c44 1 53-31 53-75 0-43-8-75-51-75s-53 32-53 75 10 74 51 75" id="aj"/><path fill="#3a414a" d="M179-190L93 31C79 59 56 82 12 73V49c39 6 53-20 64-50L1-190h34L92-34l54-156h33" id="ak"/><g id="h"><use transform="matrix(0.06172839506172839,0,0,0.06172839506172839,0,0)" xlink:href="#ai"/><use transform="matrix(0.06172839506172839,0,0,0.06172839506172839,12.345679012345679,0)" xlink:href="#af"/><use transform="matrix(0.06172839506172839,0,0,0.06172839506172839,19.691358024691358,0)" xlink:href="#aj"/><use transform="matrix(0.06172839506172839,0,0,0.06172839506172839,32.03703703703704,0)" xlink:href="#ae"/><use transform="matrix(0.06172839506172839,0,0,0.06172839506172839,43.14814814814815,0)" xlink:href="#ak"/></g><linearGradient gradientUnits="userSpaceOnUse" id="i" x1="960" y1="740" x2="1080" y2="620"><stop offset="0%" stop-color="#c8511b"/><stop offset="100%" stop-color="#f90"/></linearGradient><path d="M205 0l-28-72H64L36 0H1l101-248h38L239 0h-34zm-38-99l-47-123c-12 45-31 82-46 123h93" id="al"/><path d="M210-169c-67 3-38 105-44 169h-31v-121c0-29-5-50-35-48C34-165 62-65 56 0H25l-1-190h30c1 10-1 24 2 32 10-44 99-50 107 0 11-21 27-35 58-36 85-2 47 119 55 194h-31v-121c0-29-5-49-35-48" id="am"/><path d="M141-36C126-15 110 5 73 4 37 3 15-17 15-53c-1-64 63-63 125-63 3-35-9-54-41-54-24 1-41 7-42 31l-33-3c5-37 33-52 76-52 45 0 72 20 72 64v82c-1 20 7 32 28 27v20c-31 9-61-2-59-35zM48-53c0 20 12 33 32 33 41-3 63-29 60-74-43 2-92-5-92 41" id="an"/><path d="M9 0v-24l116-142H16v-24h144v24L44-24h123V0H9" id="ao"/><path d="M100-194c62-1 85 37 85 99 1 63-27 99-86 99S16-35 15-95c0-66 28-99 85-99zM99-20c44 1 53-31 53-75 0-43-8-75-51-75s-53 32-53 75 10 74 51 75" id="ap"/><path d="M117-194c89-4 53 116 60 194h-32v-121c0-31-8-49-39-48C34-167 62-67 57 0H25l-1-190h30c1 10-1 24 2 32 11-22 29-35 61-36" id="aq"/><g id="j"><use transform="matrix(0.05,0,0,0.05,0,0)" xlink:href="#al"/><use transform="matrix(0.05,0,0,0.05,12,0)" xlink:href="#am"/><use transform="matrix(0.05,0,0,0.05,26.950000000000003,0)" xlink:href="#an"/><use transform="matrix(0.05,0,0,0.05,36.95,0)" xlink:href="#ao"/><use transform="matrix(0.05,0,0,0.05,45.95,0)" xlink:href="#ap"/><use transform="matrix(0.05,0,0,0.05,55.95,0)" xlink:href="#aq"/></g><path d="M30 0v-248h187v28H63v79h144v27H63v87h162V0H30" id="ar"/><path d="M212-179c-10-28-35-45-73-45-59 0-87 40-87 99 0 60 29 101 89 101 43 0 62-24 78-52l27 14C228-24 195 4 139 4 59 4 22-46 18-125c-6-104 99-153 187-111 19 9 31 26 39 46" id="as"/><path d="M101-251c82-7 93 87 43 132L82-64C71-53 59-42 53-27h129V0H18c2-99 128-94 128-182 0-28-16-43-45-43s-46 15-49 41l-32-3c6-41 34-60 81-64" id="at"/><g id="k"><use transform="matrix(0.05,0,0,0.05,0,0)" xlink:href="#ar"/><use transform="matrix(0.05,0,0,0.05,12,0)" xlink:href="#as"/><use transform="matrix(0.05,0,0,0.05,24.950000000000003,0)" xlink:href="#at"/></g><linearGradient gradientUnits="userSpaceOnUse" id="l" x1="337.69" y1="434.74" x2="422.63" y2="485.57"><stop offset="0%" stop-color="#86d633"/><stop offset="100%" stop-color="#5e9624"/></linearGradient><linearGradient gradientUnits="userSpaceOnUse" id="m" x1="232.07" y1="447.28" x2="316.38" y2="498.17"><stop offset="0%" stop-color="#86d633"/><stop offset="100%" stop-color="#5e9624"/></linearGradient><linearGradient gradientUnits="userSpaceOnUse" id="n" x1="232.07" y1="447.28" x2="316.38" y2="498.17"><stop offset="0%" stop-color="#86d633"/><stop offset="100%" stop-color="#5e9624"/></linearGradient><path d="M190 0L58-211 59 0H30v-248h39L202-35l-2-213h31V0h-41" id="au"/><path d="M100-194c63 0 86 42 84 106H49c0 40 14 67 53 68 26 1 43-12 49-29l28 8c-11 28-37 45-77 45C44 4 14-33 15-96c1-61 26-98 85-98zm52 81c6-60-76-77-97-28-3 7-6 17-6 28h103" id="av"/><path d="M59-47c-2 24 18 29 38 22v24C64 9 27 4 27-40v-127H5v-23h24l9-43h21v43h35v23H59v120" id="aw"/><path d="M206 0h-36l-40-164L89 0H53L-1-190h32L70-26l43-164h34l41 164 42-164h31" id="ax"/><path d="M114-163C36-179 61-72 57 0H25l-1-190h30c1 12-1 29 2 39 6-27 23-49 58-41v29" id="ay"/><path d="M143 0L79-87 56-68V0H24v-261h32v163l83-92h37l-77 82L181 0h-38" id="az"/><g id="o"><use transform="matrix(0.05,0,0,0.05,0,0)" xlink:href="#au"/><use transform="matrix(0.05,0,0,0.05,12.950000000000001,0)" xlink:href="#av"/><use transform="matrix(0.05,0,0,0.05,22.950000000000003,0)" xlink:href="#aw"/><use transform="matrix(0.05,0,0,0.05,27.950000000000003,0)" xlink:href="#ax"/><use transform="matrix(0.05,0,0,0.05,40.900000000000006,0)" xlink:href="#ap"/><use transform="matrix(0.05,0,0,0.05,50.900000000000006,0)" xlink:href="#ay"/><use transform="matrix(0.05,0,0,0.05,56.85,0)" xlink:href="#az"/></g><path d="M30-248c87 1 191-15 191 75 0 78-77 80-158 76V0H30v-248zm33 125c57 0 124 11 124-50 0-59-68-47-124-48v98" id="aA"/><path d="M24-231v-30h32v30H24zM24 0v-190h32V0H24" id="aB"/><path d="M177-190C167-65 218 103 67 71c-23-6-38-20-44-43l32-5c15 47 100 32 89-28v-30C133-14 115 1 83 1 29 1 15-40 15-95c0-56 16-97 71-98 29-1 48 16 59 35 1-10 0-23 2-32h30zM94-22c36 0 50-32 50-73 0-42-14-75-50-75-39 0-46 34-46 75s6 73 46 73" id="aC"/><g id="p"><use transform="matrix(0.05,0,0,0.05,0,0)" xlink:href="#aA"/><use transform="matrix(0.05,0,0,0.05,12,0)" xlink:href="#av"/><use transform="matrix(0.05,0,0,0.05,22,0)" xlink:href="#av"/><use transform="matrix(0.05,0,0,0.05,32,0)" xlink:href="#ay"/><use transform="matrix(0.05,0,0,0.05,37.95,0)" xlink:href="#aB"/><use transform="matrix(0.05,0,0,0.05,41.900000000000006,0)" xlink:href="#aq"/><use transform="matrix(0.05,0,0,0.05,51.900000000000006,0)" xlink:href="#aC"/></g><linearGradient gradientUnits="userSpaceOnUse" id="q" x1="620" y1="263.9" x2="620" y2="167"><stop offset="0%" stop-color="#32bedd"/><stop offset="18%" stop-color="#32caea"/><stop offset="41%" stop-color="#32d2f2"/><stop offset="78%" stop-color="#32d4f5"/></linearGradient><path d="M84 4C-5 8 30-112 23-190h32v120c0 31 7 50 39 49 72-2 45-101 50-169h31l1 190h-30c-1-10 1-25-2-33-11 22-28 36-60 37" id="aD"/><path d="M115-194c53 0 69 39 70 98 0 66-23 100-70 100C84 3 66-7 56-30L54 0H23l1-261h32v101c10-23 28-34 59-34zm-8 174c40 0 45-34 45-75 0-40-5-75-45-74-42 0-51 32-51 76 0 43 10 73 51 73" id="aE"/><path d="M24 0v-261h32V0H24" id="aF"/><path d="M96-169c-40 0-48 33-48 73s9 75 48 75c24 0 41-14 43-38l32 2c-6 37-31 61-74 61-59 0-76-41-82-99-10-93 101-131 147-64 4 7 5 14 7 22l-32 3c-4-21-16-35-41-35" id="aG"/><g id="r"><use transform="matrix(0.05,0,0,0.05,0,0)" xlink:href="#aA"/><use transform="matrix(0.05,0,0,0.05,12,0)" xlink:href="#aD"/><use transform="matrix(0.05,0,0,0.05,22,0)" xlink:href="#aE"/><use transform="matrix(0.05,0,0,0.05,32,0)" xlink:href="#aF"/><use transform="matrix(0.05,0,0,0.05,35.95,0)" xlink:href="#aB"/><use transform="matrix(0.05,0,0,0.05,39.900000000000006,0)" xlink:href="#aG"/></g><path d="M33 0v-248h34V0H33" id="aH"/><g id="s"><use transform="matrix(0.05,0,0,0.05,0,0)" xlink:href="#aH"/><use transform="matrix(0.05,0,0,0.05,5,0)" xlink:href="#aA"/></g><linearGradient gradientUnits="userSpaceOnUse" id="t" x1="380" y1="271" x2="380" y2="160"><stop offset="0%" stop-color="#0078d4"/><stop offset="82%" stop-color="#5ea0ef"/></linearGradient><linearGradient gradientUnits="userSpaceOnUse" id="u" x1="380" y1="271" x2="380" y2="160"><stop offset="15%" stop-color="#ccc"/><stop offset="100%" stop-color="#707070"/></linearGradient><path d="M137 0h-34L2-248h35l83 218 83-218h36" id="aI"/><g id="v"><use transform="matrix(0.05,0,0,0.05,0,0)" xlink:href="#aI"/><use transform="matrix(0.05,0,0,0.05,11.65,0)" xlink:href="#aB"/><use transform="matrix(0.05,0,0,0.05,15.600000000000001,0)" xlink:href="#ay"/><use transform="matrix(0.05,0,0,0.05,21.55,0)" xlink:href="#aw"/><use transform="matrix(0.05,0,0,0.05,26.55,0)" xlink:href="#aD"/><use transform="matrix(0.05,0,0,0.05,36.55,0)" xlink:href="#an"/><use transform="matrix(0.05,0,0,0.05,46.55,0)" xlink:href="#aF"/></g><path d="M240 0l2-218c-23 76-54 145-80 218h-23L58-218 59 0H30v-248h44l77 211c21-75 51-140 76-211h43V0h-30" id="aJ"/><path d="M106-169C34-169 62-67 57 0H25v-261h32l-1 103c12-21 28-36 61-36 89 0 53 116 60 194h-32v-121c2-32-8-49-39-48" id="aK"/><g id="w"><use transform="matrix(0.05,0,0,0.05,0,0)" xlink:href="#aJ"/><use transform="matrix(0.05,0,0,0.05,14.950000000000001,0)" xlink:href="#an"/><use transform="matrix(0.05,0,0,0.05,24.950000000000003,0)" xlink:href="#aG"/><use transform="matrix(0.05,0,0,0.05,33.95,0)" xlink:href="#aK"/><use transform="matrix(0.05,0,0,0.05,43.95,0)" xlink:href="#aB"/><use transform="matrix(0.05,0,0,0.05,47.900000000000006,0)" xlink:href="#aq"/><use transform="matrix(0.05,0,0,0.05,57.900000000000006,0)" xlink:href="#av"/></g><linearGradient gradientUnits="userSpaceOnUse" id="x" x1="380" y1="731" x2="380" y2="620"><stop offset="0%" stop-color="#0078d4"/><stop offset="82%" stop-color="#5ea0ef"/></linearGradient><linearGradient gradientUnits="userSpaceOnUse" id="y" x1="380" y1="731" x2="380" y2="620"><stop offset="15%" stop-color="#ccc"/><stop offset="100%" stop-color="#707070"/></linearGradient><linearGradient gradientUnits="userSpaceOnUse" id="z" x1="620" y1="723.9" x2="620" y2="627"><stop offset="0%" stop-color="#32bedd"/><stop offset="18%" stop-color="#32caea"/><stop offset="41%" stop-color="#32d2f2"/><stop offset="78%" stop-color="#32d4f5"/></linearGradient><path fill="#3a414a" d="M275 0h-61l-44-196L126 0H64L0-248h53L97-49l45-199h58l43 199 44-199h52" id="aL"/><path fill="#3a414a" d="M137-138c1-29-70-34-71-4 15 46 118 7 119 86 1 83-164 76-172 9l43-7c4 19 20 25 44 25 33 8 57-30 24-41C81-84 22-81 20-136c-2-80 154-74 161-7" id="aM"/><g id="A"><use transform="matrix(0.06172839506172839,0,0,0.06172839506172839,0,0)" xlink:href="#aL"/><use transform="matrix(0.06172839506172839,0,0,0.06172839506172839,20.493827160493826,0)" xlink:href="#U"/><use transform="matrix(0.06172839506172839,0,0,0.06172839506172839,32.839506172839506,0)" xlink:href="#aM"/><use transform="matrix(0.06172839506172839,0,0,0.06172839506172839,45.18518518518518,0)" xlink:href="#J"/></g><path fill="#3a414a" d="M238-95c0 69-44 99-111 99C63 4 22-25 22-93v-155h51v151c-1 38 19 59 55 60 90 1 49-130 58-211h52v153" id="aN"/><g id="B"><use transform="matrix(0.06172839506172839,0,0,0.06172839506172839,0,0)" xlink:href="#aN"/><use transform="matrix(0.06172839506172839,0,0,0.06172839506172839,15.987654320987653,0)" xlink:href="#G"/></g><path fill="#3a414a" d="M128-127c34 4 56 21 59 58 7 91-148 94-172 28-4-9-6-17-7-26l51-5c1 24 16 35 40 36 23 0 39-12 38-36-1-31-31-36-65-34v-40c32 2 59-3 59-33 0-20-13-33-34-33s-33 13-35 32l-50-3c6-44 37-68 86-68 50 0 83 20 83 66 0 35-22 52-53 58" id="aO"/><g id="C"><use transform="matrix(0.06172839506172839,0,0,0.06172839506172839,0,0)" xlink:href="#aO"/><use transform="matrix(0.06172839506172839,0,0,0.06172839506172839,12.345679012345679,0)" xlink:href="#M"/></g><path fill="#3a414a" d="M185-189c-5-48-123-54-124 2 14 75 158 14 163 119 3 78-121 87-175 55-17-10-28-26-33-46l33-7c5 56 141 63 141-1 0-78-155-14-162-118-5-82 145-84 179-34 5 7 8 16 11 25" id="aP"/><g id="D"><use transform="matrix(0.06172839506172839,0,0,0.06172839506172839,0,0)" xlink:href="#aP"/><use transform="matrix(0.06172839506172839,0,0,0.06172839506172839,14.814814814814813,0)" xlink:href="#Q"/><use transform="matrix(0.06172839506172839,0,0,0.06172839506172839,27.160493827160494,0)" xlink:href="#af"/><use transform="matrix(0.06172839506172839,0,0,0.06172839506172839,34.50617283950617,0)" xlink:href="#ag"/><use transform="matrix(0.06172839506172839,0,0,0.06172839506172839,45.61728395061728,0)" xlink:href="#Q"/><use transform="matrix(0.06172839506172839,0,0,0.06172839506172839,57.962962962962955,0)" xlink:href="#af"/></g></defs></g></svg>